<?xml version="1.0" encoding="UTF-8"?>
<svg version="1.1" viewBox="0 0 960 960" width="960" height="960" xmlns="http://www.w3.org/2000/svg">
<path transform="translate(0)" d="m0 0h960v960h-960z" fill="#FEFEFE"/>
<path transform="translate(459,114)" d="m0 0h30l23 1 24 3 24 5 22 6 26 9 16 7 18 8 22 12 10 6 16 11 13 10 11 9 12 11 8 8 8 7 21 24 8 11 6 8 11 17 12 21 9 17 5 12 8 21 3 7 8 30 5 30 1 3 2 18v65l-2 22-8 40-6 24-8 20-5 12-14 28-10 17-9 14-9 12-13 16-13 14-7 8-15 15-8 7-12 10-10 8-18 13-18 11-23 13-25 12-47 16-25 5-19 3-19 2h-55l-30-4-28-6-20-6-12-4-12-9-4-6-1-4v-17l5-10 5-4 4-1h8l12 3 29 8 23 5 22 3 12 1h42l18-2 19-3 16-4 14-4 31-11 12-5 24-13 19-12 13-10 11-9 14-12 13-12 7-8 10-11 13-17 11-16 10-17 12-22 9-21 7-24 8-38 3-27 1-29-2-32-5-32-7-27-7-20-9-21-12-22-10-15-15-22-11-13-11-12-10-10-8-7-14-12-12-9-15-10-15-9-28-14-21-8-20-6-16-4-27-4-23-2h-46l-25 2-24 4-24 6-10 3-18 7-28 13-21 12-11 7-6 4-9 7-8 6-11 9-11 11-8 7-11 12-7 9-4 5-6 8-10 15-6 10-9 17-4 10-6 13-6 15-8 25-5 25-3 25-1 33 1 23 3 25 5 25 3 11v19l-4 8-5 4-9 4h-8l-10-4-6-7-6-13-6-25-4-22-2-18-1-19v-38l3-35 4-20 4-18 10-30 7-17 14-29 10-18 8-12 7-10 11-14 9-11 13-15 12-12 11-9 9-8 10-8 18-13 15-10 19-11 27-13 23-9 17-6 25-6 20-4 28-4z" fill="#7D00CE"/>
<path transform="translate(472,356)" d="m0 0h28l20 4 17 6 15 8 11 8 10 9 9 9 11 16 8 15 6 18 2 8 1 13v12l-1 15-4 16-8 20-6 10-7 9-11 12-9 9-18 13-17 9-14 5-14 3h-33l-18-3-13-5-16-8-12-8-11-10-8-7-7-9-7-10-9-17-6-20-2-13v-30l3-15 7-17 10-18 9-12 10-11 11-9 10-7 17-9 10-4 19-4z" fill="#7D00CE"/>
<path transform="translate(454,246)" d="m0 0h48l18 2 23 5 19 6 16 6 22 11 17 11 17 13 15 14 7 7 7 8 9 11 7 10 8 13 6 10 13 29 5 15 5 27 3 26v15l-2 28-4 24-6 22-8 20-8 17-12 20-8 11-9 11-11 12-11 11-8 7-14 12-23 15-22 12-8 4-16 6-20 6-19 4-16 2h-52l-13-3-8-5-6-7-2-4v-18l6-9 6-5 4-2h21l26 2h14l21-2 27-8 21-9 16-9 11-8 13-10 16-15 9-10 8-11 10-16 10-19 6-16 4-12 5-31v-44l-5-27-8-23-11-21-8-12-7-9-9-11-10-10-14-11-13-9-19-11-15-6-20-6-20-4-10-1h-32l-14 1-31 7h-17l-6-5-3-6-1-6v-12l2-8 8-9 12-6 29-6z" fill="#7D00CE"/>
<path transform="translate(475,417)" d="m0 0h25l13 5 13 8 12 11 8 14 3 8 1 7v17l-3 12-4 10-12 16-13 10-8 5-13 4-7 1h-12l-14-3-14-7-10-8-8-9-8-13-4-11-1-4v-22l3-10 7-13 9-10 8-7 14-7z" fill="#fff"/>
<path transform="translate(252,366)" d="m0 0h8l8 2 6 4 7 8 4 9v7l-5 12-7 9-7 13-6 20-2 11-1 27 1 17 6 25 7 16 6 11 6 9 1 5v7l-3 9-5 8-7 6-4 2h-12l-12-6-9-11-5-9-8-15-6-16-6-22-4-20-1-13v-18l2-19 4-21 5-17 7-17 8-14 9-11 9-6z" fill="#7D00CE"/>
<path transform="translate(330,386)" d="m0 0h8l9 3 8 6 4 5 4 8 1 10-2 8-4 6-13 13-5 9-3 13-1 7v18l4 15 5 10 17 17 3 8v11l-4 10-7 7-11 5h-12l-13-5-9-8-6-8-10-16-8-19-4-20-1-13v-14l3-19 5-16 7-16 7-13 6-8 9-9 8-4z" fill="#7D00CE"/>
<path transform="translate(437,113)" d="m0 0h72l18 2 23 4 28 7 29 10 30 13 19 10 14 8 14 9 24 18 15 13 12 12 8 7 21 24 8 11 6 8 13 20 13 23 12 25 6 16 4 10 3 12 5 18 6 34 2 18 1 21v32l-3 37-7 36-4 14-3 13-8 21-12 25-11 21-9 15-9 13-9 12-9 11-12 13-11 12-13 13-8 7-13 11-13 10-14 10-18 11-23 13-27 13-38 13-14 4-28 5-28 3-19 1h-20l-28-2-21-3-20-4-18-5-21-7-12-9-4-6-2-9v-8l2-10 4-6 5-4 2-1h16l23 7 23 6 23 4 15 2 29 1 28-1 17-2 21-4 16-5 12-3 24-9 20-9 20-11 16-10 13-10 11-9 2 1-9 8-19 14-13 8-14 8-16 8-9 4-31 11-16 5-26 5-13 2-12 1h-42l-28-3-25-5-22-6-17-5-6-1h-8l-7 3-5 8-1 3v17l3 7 5 5 8 6 24 8 26 6 23 4 17 2h55l19-2 26-4 21-5 36-12 19-8 20-10 24-14 11-7 11-8 9-7 14-11 12-11 8-7 14-14 7-8 10-11 11-14 8-11 7-11 10-17 12-23 7-14 6-16 4-10 8-32 4-20 2-12 2-22v-65l-2-18-3-16-5-25-7-24-10-26-6-13-10-20-13-22-10-15-4-5-9-12-14-16-11-12-8-7-10-10-11-9-18-14-12-8-10-6-18-10-15-8-16-7-21-8-21-7-29-7-26-4-9-1-23-1h-30l-25 1-28 4-20 4-18 4-30 10-23 10-27 13-21 13-18 13-12 9-13 11-10 9-8 7-9 9-9 11-11 13-7 9-8 12-7 10-11 19-12 24-8 18-8 24-6 20-4 18-2 12-3 35v38l1 19 3 23 5 27 5 17 7 14 5 4 8 3h8l12-6 4-6 1-3v-19l-4-16-5-25-2-20-1-31 1-25 3-25 5-25 11-33 8-18 4-8 4-10 6-11 6-10 8-12 12-16 4-5 7-8 14-15 8-7 8-8 8-6 5-4 13-10 10-6 11-7 18-10 30-14 16-6 32-8 24-4 25-2h46l31 3 19 3 24 6 23 8 18 8 24 12 11 7 12 8 11 8 13 11 8 7 13 12 11 11 7 8-1 2-7-7-7-8-12-12-8-7-14-12-12-9-23-15-27-14-18-8-21-7-23-6-23-4-20-2-20-1h-18l-28 1-24 3-25 5-22 6-20 8-15 7-16 8-16 9-11 7-14 10-9 7-11 9-11 11-8 7-11 12-7 9-4 5-10 14-10 16-8 14-8 18-9 21-9 27-6 28-2 15-1 20v36l2 24 4 24 6 26v13l-4 10-6 5-8 4h-12l-10-5-7-9-5-13-6-25-4-23-2-19v-65l1-5 1-15 5-25 5-20 11-33 16-35 10-18 11-17 7-10 11-14 9-11 13-15 12-12 11-9 9-8 10-8 18-13 15-10 19-11 29-14 23-9 25-8 26-6 25-4z" fill="#E8E2F5"/>
<path transform="translate(448,245)" d="m0 0h62l23 4 22 6 22 8 24 12 17 11 17 13 15 14 7 7 7 8 11 13 7 11 12 20 10 21 6 16 4 15 3 16 3 29v18l-2 28-5 28-4 14-6 16-11 24-9 15-7 11-10 13-10 11-7 8-11 9-9 9-13 10-20 13-22 12-18 8-17 6-22 5-11 2-28 2h-14l-23-1-12-2-9-6-6-7-3-7v-14l5-10 9-8 7-2h12l20 2h37l16-3 20-6 24-11 14-8 10-7 13-10 26-26 7-10 10-16 8-16 5-11 6-18 4-19 2-21v-30l-3-21-5-19-7-19-9-17-7-11-8-10-9-11-10-10-14-11-13-9-19-11-21-8-19-5-18-3-12-1h-23l-20 2-31 7h-11l-7-3-4-5-3-8v-20l6-9 7-6 12-5 24-5zm6 1-20 3-21 5-10 6-7 8-2 8v12l2 8 4 6 4 3h17l31-7 14-1h32l21 3 17 4 20 7 16 8 16 10 13 10 11 9 10 10 8 10 11 16 8 14 7 15 6 18 5 27v44l-5 31-8 23-10 21-10 16-10 14-7 7-7 8-13 12-8 6-10 7-16 10-17 8-17 6-18 5-21 2h-14l-26-2h-21l-8 5-6 7-2 4v18l5 8 7 6 6 3 11 2h52l27-4 22-6 16-6 12-5 21-11 27-18 15-13 15-14 10-10 9-11 10-13 9-16 6-10 12-27 6-20 4-20 2-12 2-28v-15l-3-26-5-27-6-17-9-20-7-14-8-13-8-12-8-9-7-8-9-10-9-9-11-9-16-12-19-11-23-11-21-7-25-6-12-2-11-1z" fill="#E8E2F5"/>
<path transform="translate(478,354)" d="m0 0h14l17 2 19 5 16 7 14 8 13 11 12 12 10 14 9 17 7 21 2 9v34l-3 15-8 20-7 14-8 10-12 14-3 3h-2v2l-14 10-11 7-10 6-16 6-14 3h-36l-14-2-13-4-16-8-10-6-8-6-15-13-9-11-7-10-9-17-5-14-3-17-1-6v-24l3-16 6-16 10-19 10-14 12-13 11-9 13-8 12-7 18-6 16-3zm-6 2-18 3-13 4-16 8-14 8-11 10-8 7-11 14-11 19-7 16-3 11-1 7v30l3 17 6 18 9 17 4 5 11 14 11 10 9 7 13 8 16 8 13 4 14 2h33l18-4 18-8 15-9 14-11 15-15 8-10 8-13 8-20 4-16 1-15v-12l-1-13-6-20-4-9-9-17-10-13-14-14-11-8-14-8-14-6-20-5-7-1z" fill="#E8E2F5"/>
<path transform="translate(475,417)" d="m0 0h25l13 5 13 8 12 11 8 14 3 8 1 7v17l-3 12-4 10-12 16-13 10-8 5-13 4-7 1h-12l-14-3-14-7-10-8-8-9-8-13-4-11-1-4v-22l3-10 7-13 9-10 8-7 14-7zm7 1-11 1-16 6-11 6-12 12-9 16-3 13v14l4 16 7 12 9 11 8 7 10 6 15 5h21l12-3 14-8 11-9 7-10 6-10 3-8 2-9v-13l-3-14-7-14-9-10-11-8-14-7-9-2z" fill="#E8E2F5"/>
<path transform="translate(719,684)" d="m0 0v3l-15 16-7 8-11 10-8 7-2-1 10-10 11-9 9-10 7-8z" fill="#E8E2F5"/>
</svg>
